STARTFONT 2.1
FONT -Raccoon-Fixed4x6-Medium-R-Normal--6-60-75-75-P-40-ISO10646-1
SIZE 6 75 75
FONTBOUNDINGBOX 12 7 0 -1
COMMENT "Generated by fontforge, http://fontforge.sourceforge.net"
STARTPROPERTIES 25
FONT_NAME "Fixed4x6"
FONT_ASCENT 5
FONT_DESCENT 1
QUAD_WIDTH 6
X_HEIGHT 3
CAP_HEIGHT 4
FONTNAME_REGISTRY ""
FAMILY_NAME "Fixed4x6"
FOUNDRY "Raccoon"
WEIGHT_NAME "Medium"
SETWIDTH_NAME "Normal"
SLANT "R"
ADD_STYLE_NAME ""
PIXEL_SIZE 6
POINT_SIZE 60
RESOLUTION_X 75
RESOLUTION_Y 75
RESOLUTION 75
SPACING "P"
AVERAGE_WIDTH 40
CHARSET_REGISTRY "ISO10646"
CHARSET_ENCODING "1"
CHARSET_COLLECTIONS "ASCII ISOLatin1Encoding ISO10646-1"
FULL_NAME "Fixed4x6"
COPYRIGHT """""MIT"""""
ENDPROPERTIES
CHARS 204
STARTCHAR space
ENCODING -1
SWIDTH 1000 0
DWIDTH 4 0
BBX 1 1 3 4
BITMAP
00
ENDCHAR
STARTCHAR exclam
ENCODING -1
SWIDTH 1000 0
DWIDTH 4 0
BBX 1 5 1 0
BITMAP
80
80
80
00
80
ENDCHAR
STARTCHAR quotedbl
ENCODING -1
SWIDTH 1000 0
DWIDTH 4 0
BBX 3 2 0 3
BITMAP
A0
A0
ENDCHAR
STARTCHAR numbersign
ENCODING -1
SWIDTH 1000 0
DWIDTH 4 0
BBX 3 5 0 0
BITMAP
A0
E0
A0
E0
A0
ENDCHAR
STARTCHAR dollar
ENCODING -1
SWIDTH 1000 0
DWIDTH 4 0
BBX 3 5 0 0
BITMAP
60
C0
60
C0
40
ENDCHAR
STARTCHAR percent
ENCODING -1
SWIDTH 1000 0
DWIDTH 4 0
BBX 3 5 0 0
BITMAP
80
20
40
80
20
ENDCHAR
STARTCHAR ampersand
ENCODING -1
SWIDTH 1000 0
DWIDTH 4 0
BBX 3 5 0 0
BITMAP
C0
C0
E0
A0
60
ENDCHAR
STARTCHAR quotesingle
ENCODING -1
SWIDTH 1000 0
DWIDTH 4 0
BBX 1 2 1 3
BITMAP
80
80
ENDCHAR
STARTCHAR parenleft
ENCODING -1
SWIDTH 1000 0
DWIDTH 4 0
BBX 2 5 1 0
BITMAP
40
80
80
80
40
ENDCHAR
STARTCHAR parenright
ENCODING -1
SWIDTH 1000 0
DWIDTH 4 0
BBX 2 5 0 0
BITMAP
80
40
40
40
80
ENDCHAR
STARTCHAR asterisk
ENCODING -1
SWIDTH 1000 0
DWIDTH 4 0
BBX 3 3 0 2
BITMAP
A0
40
A0
ENDCHAR
STARTCHAR plus
ENCODING -1
SWIDTH 1000 0
DWIDTH 4 0
BBX 3 3 0 1
BITMAP
40
E0
40
ENDCHAR
STARTCHAR comma
ENCODING -1
SWIDTH 1000 0
DWIDTH 4 0
BBX 2 2 0 0
BITMAP
40
80
ENDCHAR
STARTCHAR hyphen
ENCODING -1
SWIDTH 1000 0
DWIDTH 4 0
BBX 3 1 0 2
BITMAP
E0
ENDCHAR
STARTCHAR period
ENCODING -1
SWIDTH 1000 0
DWIDTH 4 0
BBX 1 1 1 0
BITMAP
80
ENDCHAR
STARTCHAR slash
ENCODING -1
SWIDTH 1000 0
DWIDTH 4 0
BBX 3 5 0 0
BITMAP
20
20
40
80
80
ENDCHAR
STARTCHAR zero
ENCODING -1
SWIDTH 1000 0
DWIDTH 4 0
BBX 3 5 0 0
BITMAP
60
A0
A0
A0
C0
ENDCHAR
STARTCHAR one
ENCODING -1
SWIDTH 1000 0
DWIDTH 4 0
BBX 2 5 0 0
BITMAP
40
C0
40
40
40
ENDCHAR
STARTCHAR two
ENCODING -1
SWIDTH 1000 0
DWIDTH 4 0
BBX 3 5 0 0
BITMAP
C0
20
40
80
E0
ENDCHAR
STARTCHAR three
ENCODING -1
SWIDTH 1000 0
DWIDTH 4 0
BBX 3 5 0 0
BITMAP
C0
20
40
20
C0
ENDCHAR
STARTCHAR four
ENCODING -1
SWIDTH 1000 0
DWIDTH 4 0
BBX 3 5 0 0
BITMAP
A0
A0
E0
20
20
ENDCHAR
STARTCHAR five
ENCODING -1
SWIDTH 1000 0
DWIDTH 4 0
BBX 3 5 0 0
BITMAP
E0
80
C0
20
C0
ENDCHAR
STARTCHAR six
ENCODING -1
SWIDTH 1000 0
DWIDTH 4 0
BBX 3 5 0 0
BITMAP
60
80
E0
A0
E0
ENDCHAR
STARTCHAR seven
ENCODING -1
SWIDTH 1000 0
DWIDTH 4 0
BBX 3 5 0 0
BITMAP
E0
20
40
80
80
ENDCHAR
STARTCHAR eight
ENCODING -1
SWIDTH 1000 0
DWIDTH 4 0
BBX 3 5 0 0
BITMAP
E0
A0
E0
A0
E0
ENDCHAR
STARTCHAR nine
ENCODING -1
SWIDTH 1000 0
DWIDTH 4 0
BBX 3 5 0 0
BITMAP
E0
A0
E0
20
C0
ENDCHAR
STARTCHAR colon
ENCODING -1
SWIDTH 1000 0
DWIDTH 4 0
BBX 1 3 1 1
BITMAP
80
00
80
ENDCHAR
STARTCHAR semicolon
ENCODING -1
SWIDTH 1000 0
DWIDTH 4 0
BBX 2 4 0 0
BITMAP
40
00
40
80
ENDCHAR
STARTCHAR less
ENCODING -1
SWIDTH 1000 0
DWIDTH 4 0
BBX 3 5 0 0
BITMAP
20
40
80
40
20
ENDCHAR
STARTCHAR equal
ENCODING -1
SWIDTH 1000 0
DWIDTH 4 0
BBX 3 3 0 1
BITMAP
E0
00
E0
ENDCHAR
STARTCHAR greater
ENCODING -1
SWIDTH 1000 0
DWIDTH 4 0
BBX 3 5 0 0
BITMAP
80
40
20
40
80
ENDCHAR
STARTCHAR question
ENCODING -1
SWIDTH 1000 0
DWIDTH 4 0
BBX 3 5 0 0
BITMAP
E0
20
40
00
40
ENDCHAR
STARTCHAR at
ENCODING -1
SWIDTH 1000 0
DWIDTH 4 0
BBX 3 5 0 0
BITMAP
40
A0
E0
80
60
ENDCHAR
STARTCHAR A
ENCODING -1
SWIDTH 1000 0
DWIDTH 4 0
BBX 3 5 0 0
BITMAP
40
A0
E0
A0
A0
ENDCHAR
STARTCHAR B
ENCODING -1
SWIDTH 1000 0
DWIDTH 4 0
BBX 3 5 0 0
BITMAP
C0
A0
C0
A0
C0
ENDCHAR
STARTCHAR C
ENCODING -1
SWIDTH 1000 0
DWIDTH 4 0
BBX 3 5 0 0
BITMAP
60
80
80
80
60
ENDCHAR
STARTCHAR D
ENCODING -1
SWIDTH 1000 0
DWIDTH 4 0
BBX 3 5 0 0
BITMAP
C0
A0
A0
A0
C0
ENDCHAR
STARTCHAR E
ENCODING -1
SWIDTH 1000 0
DWIDTH 4 0
BBX 3 5 0 0
BITMAP
E0
80
E0
80
E0
ENDCHAR
STARTCHAR F
ENCODING -1
SWIDTH 1000 0
DWIDTH 4 0
BBX 3 5 0 0
BITMAP
E0
80
E0
80
80
ENDCHAR
STARTCHAR G
ENCODING -1
SWIDTH 1000 0
DWIDTH 4 0
BBX 3 5 0 0
BITMAP
60
80
E0
A0
60
ENDCHAR
STARTCHAR H
ENCODING -1
SWIDTH 1000 0
DWIDTH 4 0
BBX 3 5 0 0
BITMAP
A0
A0
E0
A0
A0
ENDCHAR
STARTCHAR I
ENCODING -1
SWIDTH 1000 0
DWIDTH 4 0
BBX 3 5 0 0
BITMAP
E0
40
40
40
E0
ENDCHAR
STARTCHAR J
ENCODING -1
SWIDTH 1000 0
DWIDTH 4 0
BBX 3 5 0 0
BITMAP
20
20
20
A0
40
ENDCHAR
STARTCHAR K
ENCODING -1
SWIDTH 1000 0
DWIDTH 4 0
BBX 3 5 0 0
BITMAP
A0
A0
C0
A0
A0
ENDCHAR
STARTCHAR L
ENCODING -1
SWIDTH 1000 0
DWIDTH 4 0
BBX 3 5 0 0
BITMAP
80
80
80
80
E0
ENDCHAR
STARTCHAR M
ENCODING -1
SWIDTH 1000 0
DWIDTH 4 0
BBX 3 5 0 0
BITMAP
A0
E0
E0
A0
A0
ENDCHAR
STARTCHAR N
ENCODING -1
SWIDTH 1000 0
DWIDTH 4 0
BBX 3 5 0 0
BITMAP
A0
E0
E0
E0
A0
ENDCHAR
STARTCHAR O
ENCODING -1
SWIDTH 1000 0
DWIDTH 4 0
BBX 3 5 0 0
BITMAP
40
A0
A0
A0
40
ENDCHAR
STARTCHAR P
ENCODING -1
SWIDTH 1000 0
DWIDTH 4 0
BBX 3 5 0 0
BITMAP
C0
A0
C0
80
80
ENDCHAR
STARTCHAR Q
ENCODING -1
SWIDTH 1000 0
DWIDTH 4 0
BBX 3 5 0 0
BITMAP
40
A0
A0
E0
60
ENDCHAR
STARTCHAR R
ENCODING -1
SWIDTH 1000 0
DWIDTH 4 0
BBX 3 5 0 0
BITMAP
C0
A0
E0
C0
A0
ENDCHAR
STARTCHAR S
ENCODING -1
SWIDTH 1000 0
DWIDTH 4 0
BBX 3 5 0 0
BITMAP
60
80
40
20
C0
ENDCHAR
STARTCHAR T
ENCODING -1
SWIDTH 1000 0
DWIDTH 4 0
BBX 3 5 0 0
BITMAP
E0
40
40
40
40
ENDCHAR
STARTCHAR U
ENCODING -1
SWIDTH 1000 0
DWIDTH 4 0
BBX 3 5 0 0
BITMAP
A0
A0
A0
A0
60
ENDCHAR
STARTCHAR V
ENCODING -1
SWIDTH 1000 0
DWIDTH 4 0
BBX 3 5 0 0
BITMAP
A0
A0
A0
40
40
ENDCHAR
STARTCHAR W
ENCODING -1
SWIDTH 1000 0
DWIDTH 4 0
BBX 3 5 0 0
BITMAP
A0
A0
E0
E0
A0
ENDCHAR
STARTCHAR X
ENCODING -1
SWIDTH 1000 0
DWIDTH 4 0
BBX 3 5 0 0
BITMAP
A0
A0
40
A0
A0
ENDCHAR
STARTCHAR Y
ENCODING -1
SWIDTH 1000 0
DWIDTH 4 0
BBX 3 5 0 0
BITMAP
A0
A0
40
40
40
ENDCHAR
STARTCHAR Z
ENCODING -1
SWIDTH 1000 0
DWIDTH 4 0
BBX 3 5 0 0
BITMAP
E0
20
40
80
E0
ENDCHAR
STARTCHAR bracketleft
ENCODING -1
SWIDTH 1000 0
DWIDTH 4 0
BBX 3 5 0 0
BITMAP
E0
80
80
80
E0
ENDCHAR
STARTCHAR backslash
ENCODING -1
SWIDTH 1000 0
DWIDTH 4 0
BBX 3 3 0 1
BITMAP
80
40
20
ENDCHAR
STARTCHAR bracketright
ENCODING -1
SWIDTH 1000 0
DWIDTH 4 0
BBX 3 5 0 0
BITMAP
E0
20
20
20
E0
ENDCHAR
STARTCHAR asciicircum
ENCODING -1
SWIDTH 1000 0
DWIDTH 4 0
BBX 3 2 0 3
BITMAP
40
A0
ENDCHAR
STARTCHAR underscore
ENCODING -1
SWIDTH 1000 0
DWIDTH 4 0
BBX 3 1 0 0
BITMAP
E0
ENDCHAR
STARTCHAR grave
ENCODING -1
SWIDTH 1000 0
DWIDTH 4 0
BBX 2 2 0 3
BITMAP
80
40
ENDCHAR
STARTCHAR a
ENCODING -1
SWIDTH 1000 0
DWIDTH 4 0
BBX 3 4 0 0
BITMAP
C0
60
A0
E0
ENDCHAR
STARTCHAR b
ENCODING -1
SWIDTH 1000 0
DWIDTH 4 0
BBX 3 5 0 0
BITMAP
80
C0
A0
A0
C0
ENDCHAR
STARTCHAR c
ENCODING -1
SWIDTH 1000 0
DWIDTH 4 0
BBX 3 4 0 0
BITMAP
60
80
80
60
ENDCHAR
STARTCHAR d
ENCODING -1
SWIDTH 1000 0
DWIDTH 4 0
BBX 3 5 0 0
BITMAP
20
60
A0
A0
60
ENDCHAR
STARTCHAR e
ENCODING -1
SWIDTH 1000 0
DWIDTH 4 0
BBX 3 4 0 0
BITMAP
60
A0
C0
60
ENDCHAR
STARTCHAR f
ENCODING -1
SWIDTH 1000 0
DWIDTH 4 0
BBX 3 5 0 0
BITMAP
20
40
E0
40
40
ENDCHAR
STARTCHAR g
ENCODING -1
SWIDTH 1000 0
DWIDTH 4 0
BBX 3 5 0 -1
BITMAP
60
A0
E0
20
40
ENDCHAR
STARTCHAR h
ENCODING -1
SWIDTH 1000 0
DWIDTH 4 0
BBX 3 5 0 0
BITMAP
80
C0
A0
A0
A0
ENDCHAR
STARTCHAR i
ENCODING -1
SWIDTH 1000 0
DWIDTH 4 0
BBX 1 5 1 0
BITMAP
80
00
80
80
80
ENDCHAR
STARTCHAR j
ENCODING -1
SWIDTH 1000 0
DWIDTH 4 0
BBX 3 6 0 -1
BITMAP
20
00
20
20
A0
40
ENDCHAR
STARTCHAR k
ENCODING -1
SWIDTH 1000 0
DWIDTH 4 0
BBX 3 5 0 0
BITMAP
80
A0
C0
C0
A0
ENDCHAR
STARTCHAR l
ENCODING -1
SWIDTH 1000 0
DWIDTH 4 0
BBX 3 5 0 0
BITMAP
C0
40
40
40
E0
ENDCHAR
STARTCHAR m
ENCODING -1
SWIDTH 1000 0
DWIDTH 4 0
BBX 3 4 0 0
BITMAP
E0
E0
E0
A0
ENDCHAR
STARTCHAR n
ENCODING -1
SWIDTH 1000 0
DWIDTH 4 0
BBX 3 4 0 0
BITMAP
C0
A0
A0
A0
ENDCHAR
STARTCHAR o
ENCODING -1
SWIDTH 1000 0
DWIDTH 4 0
BBX 3 4 0 0
BITMAP
40
A0
A0
40
ENDCHAR
STARTCHAR p
ENCODING -1
SWIDTH 1000 0
DWIDTH 4 0
BBX 3 5 0 -1
BITMAP
C0
A0
A0
C0
80
ENDCHAR
STARTCHAR q
ENCODING -1
SWIDTH 1000 0
DWIDTH 4 0
BBX 3 5 0 -1
BITMAP
60
A0
A0
60
20
ENDCHAR
STARTCHAR r
ENCODING -1
SWIDTH 1000 0
DWIDTH 4 0
BBX 3 4 0 0
BITMAP
60
80
80
80
ENDCHAR
STARTCHAR s
ENCODING -1
SWIDTH 1000 0
DWIDTH 4 0
BBX 3 4 0 0
BITMAP
60
C0
60
C0
ENDCHAR
STARTCHAR t
ENCODING -1
SWIDTH 1000 0
DWIDTH 4 0
BBX 3 5 0 0
BITMAP
40
E0
40
40
60
ENDCHAR
STARTCHAR u
ENCODING -1
SWIDTH 1000 0
DWIDTH 4 0
BBX 3 4 0 0
BITMAP
A0
A0
A0
60
ENDCHAR
STARTCHAR v
ENCODING -1
SWIDTH 1000 0
DWIDTH 4 0
BBX 3 4 0 0
BITMAP
A0
A0
E0
40
ENDCHAR
STARTCHAR w
ENCODING -1
SWIDTH 1000 0
DWIDTH 4 0
BBX 3 4 0 0
BITMAP
A0
E0
E0
E0
ENDCHAR
STARTCHAR x
ENCODING -1
SWIDTH 1000 0
DWIDTH 4 0
BBX 3 4 0 0
BITMAP
A0
40
40
A0
ENDCHAR
STARTCHAR y
ENCODING -1
SWIDTH 1000 0
DWIDTH 4 0
BBX 3 5 0 -1
BITMAP
A0
A0
60
20
40
ENDCHAR
STARTCHAR z
ENCODING -1
SWIDTH 1000 0
DWIDTH 4 0
BBX 3 4 0 0
BITMAP
E0
60
C0
E0
ENDCHAR
STARTCHAR braceleft
ENCODING -1
SWIDTH 1000 0
DWIDTH 4 0
BBX 3 5 0 0
BITMAP
60
40
80
40
60
ENDCHAR
STARTCHAR bar
ENCODING -1
SWIDTH 1000 0
DWIDTH 4 0
BBX 1 5 1 0
BITMAP
80
80
00
80
80
ENDCHAR
STARTCHAR braceright
ENCODING -1
SWIDTH 1000 0
DWIDTH 4 0
BBX 3 5 0 0
BITMAP
C0
40
20
40
C0
ENDCHAR
STARTCHAR asciitilde
ENCODING -1
SWIDTH 1000 0
DWIDTH 4 0
BBX 3 2 0 3
BITMAP
60
C0
ENDCHAR
STARTCHAR exclamdown
ENCODING -1
SWIDTH 1000 0
DWIDTH 4 0
BBX 1 5 1 0
BITMAP
80
00
80
80
80
ENDCHAR
STARTCHAR cent
ENCODING -1
SWIDTH 1000 0
DWIDTH 4 0
BBX 3 5 0 0
BITMAP
40
E0
80
E0
40
ENDCHAR
STARTCHAR sterling
ENCODING -1
SWIDTH 1000 0
DWIDTH 4 0
BBX 3 5 0 0
BITMAP
60
40
E0
40
E0
ENDCHAR
STARTCHAR currency
ENCODING -1
SWIDTH 1000 0
DWIDTH 4 0
BBX 3 5 0 0
BITMAP
A0
40
E0
40
A0
ENDCHAR
STARTCHAR yen
ENCODING -1
SWIDTH 1000 0
DWIDTH 4 0
BBX 3 5 0 0
BITMAP
A0
A0
40
E0
40
ENDCHAR
STARTCHAR brokenbar
ENCODING -1
SWIDTH 1000 0
DWIDTH 4 0
BBX 1 5 1 0
BITMAP
80
80
00
80
80
ENDCHAR
STARTCHAR section
ENCODING -1
SWIDTH 1000 0
DWIDTH 4 0
BBX 3 5 0 0
BITMAP
60
40
A0
40
C0
ENDCHAR
STARTCHAR dieresis
ENCODING -1
SWIDTH 1000 0
DWIDTH 4 0
BBX 3 1 0 4
BITMAP
A0
ENDCHAR
STARTCHAR copyright
ENCODING -1
SWIDTH 1000 0
DWIDTH 4 0
BBX 3 3 0 2
BITMAP
60
80
60
ENDCHAR
STARTCHAR ordfeminine
ENCODING -1
SWIDTH 1000 0
DWIDTH 4 0
BBX 3 5 0 0
BITMAP
60
A0
E0
00
E0
ENDCHAR
STARTCHAR guillemotleft
ENCODING -1
SWIDTH 1000 0
DWIDTH 4 0
BBX 2 3 0 2
BITMAP
40
80
40
ENDCHAR
STARTCHAR logicalnot
ENCODING -1
SWIDTH 1000 0
DWIDTH 4 0
BBX 3 2 0 2
BITMAP
E0
20
ENDCHAR
STARTCHAR softhyphen
ENCODING -1
SWIDTH 1000 0
DWIDTH 4 0
BBX 2 1 0 2
BITMAP
C0
ENDCHAR
STARTCHAR registered
ENCODING -1
SWIDTH 1000 0
DWIDTH 4 0
BBX 3 3 0 2
BITMAP
C0
C0
A0
ENDCHAR
STARTCHAR macron
ENCODING -1
SWIDTH 1000 0
DWIDTH 4 0
BBX 3 1 0 4
BITMAP
E0
ENDCHAR
STARTCHAR degree
ENCODING -1
SWIDTH 1000 0
DWIDTH 4 0
BBX 3 3 0 2
BITMAP
40
A0
40
ENDCHAR
STARTCHAR plusminus
ENCODING -1
SWIDTH 1000 0
DWIDTH 4 0
BBX 3 5 0 0
BITMAP
40
E0
40
00
E0
ENDCHAR
STARTCHAR twosuperior
ENCODING -1
SWIDTH 1000 0
DWIDTH 4 0
BBX 3 3 0 2
BITMAP
C0
40
60
ENDCHAR
STARTCHAR threesuperior
ENCODING -1
SWIDTH 1000 0
DWIDTH 4 0
BBX 3 3 0 2
BITMAP
E0
60
E0
ENDCHAR
STARTCHAR acute
ENCODING -1
SWIDTH 1000 0
DWIDTH 4 0
BBX 2 2 1 3
BITMAP
40
80
ENDCHAR
STARTCHAR mu
ENCODING -1
SWIDTH 1000 0
DWIDTH 4 0
BBX 3 5 0 0
BITMAP
A0
A0
A0
C0
80
ENDCHAR
STARTCHAR paragraph
ENCODING -1
SWIDTH 1000 0
DWIDTH 4 0
BBX 3 5 0 0
BITMAP
60
A0
60
60
60
ENDCHAR
STARTCHAR periodcentered
ENCODING -1
SWIDTH 1000 0
DWIDTH 4 0
BBX 3 3 0 1
BITMAP
E0
E0
E0
ENDCHAR
STARTCHAR cedilla
ENCODING -1
SWIDTH 1000 0
DWIDTH 4 0
BBX 3 3 0 0
BITMAP
40
20
C0
ENDCHAR
STARTCHAR onesuperior
ENCODING -1
SWIDTH 1000 0
DWIDTH 4 0
BBX 1 3 1 2
BITMAP
80
80
80
ENDCHAR
STARTCHAR ordmasculine
ENCODING -1
SWIDTH 1000 0
DWIDTH 4 0
BBX 3 5 0 0
BITMAP
40
A0
40
00
E0
ENDCHAR
STARTCHAR guillemotright
ENCODING -1
SWIDTH 1000 0
DWIDTH 4 0
BBX 2 3 1 2
BITMAP
80
40
80
ENDCHAR
STARTCHAR onequarter
ENCODING -1
SWIDTH 1000 0
DWIDTH 4 0
BBX 3 5 0 0
BITMAP
80
80
00
60
20
ENDCHAR
STARTCHAR onehalf
ENCODING -1
SWIDTH 1000 0
DWIDTH 4 0
BBX 3 5 0 0
BITMAP
80
80
00
C0
60
ENDCHAR
STARTCHAR threequarters
ENCODING -1
SWIDTH 1000 0
DWIDTH 4 0
BBX 3 5 0 0
BITMAP
C0
C0
00
60
20
ENDCHAR
STARTCHAR questiondown
ENCODING -1
SWIDTH 1000 0
DWIDTH 4 0
BBX 3 5 0 0
BITMAP
40
00
40
80
E0
ENDCHAR
STARTCHAR Agrave
ENCODING -1
SWIDTH 1000 0
DWIDTH 4 0
BBX 3 5 0 0
BITMAP
40
20
40
E0
A0
ENDCHAR
STARTCHAR Aacute
ENCODING -1
SWIDTH 1000 0
DWIDTH 4 0
BBX 3 5 0 0
BITMAP
40
80
40
E0
A0
ENDCHAR
STARTCHAR Acircumflex
ENCODING -1
SWIDTH 1000 0
DWIDTH 4 0
BBX 3 5 0 0
BITMAP
E0
00
40
E0
A0
ENDCHAR
STARTCHAR Atilde
ENCODING -1
SWIDTH 1000 0
DWIDTH 4 0
BBX 3 5 0 0
BITMAP
60
C0
40
E0
A0
ENDCHAR
STARTCHAR Adieresis
ENCODING -1
SWIDTH 1000 0
DWIDTH 4 0
BBX 3 5 0 0
BITMAP
A0
40
A0
E0
A0
ENDCHAR
STARTCHAR Aring
ENCODING -1
SWIDTH 1000 0
DWIDTH 4 0
BBX 3 5 0 0
BITMAP
C0
C0
A0
E0
A0
ENDCHAR
STARTCHAR AE
ENCODING -1
SWIDTH 1000 0
DWIDTH 4 0
BBX 3 5 0 0
BITMAP
60
C0
E0
C0
E0
ENDCHAR
STARTCHAR Ccedilla
ENCODING -1
SWIDTH 1000 0
DWIDTH 4 0
BBX 3 6 0 -1
BITMAP
60
80
80
60
20
40
ENDCHAR
STARTCHAR Egrave
ENCODING -1
SWIDTH 1000 0
DWIDTH 4 0
BBX 3 5 0 0
BITMAP
40
20
E0
C0
E0
ENDCHAR
STARTCHAR Eacute
ENCODING -1
SWIDTH 1000 0
DWIDTH 4 0
BBX 3 5 0 0
BITMAP
40
80
E0
C0
E0
ENDCHAR
STARTCHAR Ecircumflex
ENCODING -1
SWIDTH 1000 0
DWIDTH 4 0
BBX 3 5 0 0
BITMAP
E0
00
E0
C0
E0
ENDCHAR
STARTCHAR Edieresis
ENCODING -1
SWIDTH 1000 0
DWIDTH 4 0
BBX 3 5 0 0
BITMAP
A0
00
E0
C0
E0
ENDCHAR
STARTCHAR Igrave
ENCODING -1
SWIDTH 1000 0
DWIDTH 4 0
BBX 3 5 0 0
BITMAP
40
20
E0
40
E0
ENDCHAR
STARTCHAR Iacute
ENCODING -1
SWIDTH 1000 0
DWIDTH 4 0
BBX 3 5 0 0
BITMAP
40
80
E0
40
E0
ENDCHAR
STARTCHAR Icircumflex
ENCODING -1
SWIDTH 1000 0
DWIDTH 4 0
BBX 3 5 0 0
BITMAP
E0
00
E0
40
E0
ENDCHAR
STARTCHAR Idieresis
ENCODING -1
SWIDTH 1000 0
DWIDTH 4 0
BBX 3 5 0 0
BITMAP
A0
00
E0
40
E0
ENDCHAR
STARTCHAR Eth
ENCODING -1
SWIDTH 1000 0
DWIDTH 4 0
BBX 3 5 0 0
BITMAP
C0
A0
E0
A0
C0
ENDCHAR
STARTCHAR Ntilde
ENCODING -1
SWIDTH 1000 0
DWIDTH 4 0
BBX 3 5 0 0
BITMAP
C0
60
A0
E0
A0
ENDCHAR
STARTCHAR Ograve
ENCODING -1
SWIDTH 1000 0
DWIDTH 4 0
BBX 3 5 0 0
BITMAP
40
20
E0
A0
E0
ENDCHAR
STARTCHAR Oacute
ENCODING -1
SWIDTH 1000 0
DWIDTH 4 0
BBX 3 5 0 0
BITMAP
40
80
E0
A0
E0
ENDCHAR
STARTCHAR Ocircumflex
ENCODING -1
SWIDTH 1000 0
DWIDTH 4 0
BBX 3 5 0 0
BITMAP
E0
00
E0
A0
E0
ENDCHAR
STARTCHAR Otilde
ENCODING -1
SWIDTH 1000 0
DWIDTH 4 0
BBX 3 5 0 0
BITMAP
C0
60
E0
A0
E0
ENDCHAR
STARTCHAR Odieresis
ENCODING -1
SWIDTH 1000 0
DWIDTH 4 0
BBX 3 5 0 0
BITMAP
A0
00
E0
A0
E0
ENDCHAR
STARTCHAR multiply
ENCODING -1
SWIDTH 1000 0
DWIDTH 4 0
BBX 3 3 0 1
BITMAP
A0
40
A0
ENDCHAR
STARTCHAR Oslash
ENCODING -1
SWIDTH 1000 0
DWIDTH 4 0
BBX 3 5 0 0
BITMAP
60
A0
E0
A0
C0
ENDCHAR
STARTCHAR Ugrave
ENCODING -1
SWIDTH 1000 0
DWIDTH 4 0
BBX 3 5 0 0
BITMAP
80
40
A0
A0
E0
ENDCHAR
STARTCHAR Uacute
ENCODING -1
SWIDTH 1000 0
DWIDTH 4 0
BBX 3 5 0 0
BITMAP
20
40
A0
A0
E0
ENDCHAR
STARTCHAR Ucircumflex
ENCODING -1
SWIDTH 1000 0
DWIDTH 4 0
BBX 3 5 0 0
BITMAP
E0
00
A0
A0
E0
ENDCHAR
STARTCHAR Udieresis
ENCODING -1
SWIDTH 1000 0
DWIDTH 4 0
BBX 3 5 0 0
BITMAP
A0
00
A0
A0
E0
ENDCHAR
STARTCHAR Yacute
ENCODING -1
SWIDTH 1000 0
DWIDTH 4 0
BBX 3 5 0 0
BITMAP
20
40
A0
E0
40
ENDCHAR
STARTCHAR Thorn
ENCODING -1
SWIDTH 1000 0
DWIDTH 4 0
BBX 3 5 0 0
BITMAP
80
E0
A0
E0
80
ENDCHAR
STARTCHAR germandbls
ENCODING -1
SWIDTH 1000 0
DWIDTH 4 0
BBX 3 6 0 -1
BITMAP
60
A0
C0
A0
C0
80
ENDCHAR
STARTCHAR agrave
ENCODING -1
SWIDTH 1000 0
DWIDTH 4 0
BBX 3 5 0 0
BITMAP
40
20
60
A0
E0
ENDCHAR
STARTCHAR aacute
ENCODING -1
SWIDTH 1000 0
DWIDTH 4 0
BBX 3 5 0 0
BITMAP
40
80
60
A0
E0
ENDCHAR
STARTCHAR acircumflex
ENCODING -1
SWIDTH 1000 0
DWIDTH 4 0
BBX 3 5 0 0
BITMAP
E0
00
60
A0
E0
ENDCHAR
STARTCHAR atilde
ENCODING -1
SWIDTH 1000 0
DWIDTH 4 0
BBX 3 5 0 0
BITMAP
60
C0
60
A0
E0
ENDCHAR
STARTCHAR adieresis
ENCODING -1
SWIDTH 1000 0
DWIDTH 4 0
BBX 3 5 0 0
BITMAP
A0
00
60
A0
E0
ENDCHAR
STARTCHAR aring
ENCODING -1
SWIDTH 1000 0
DWIDTH 4 0
BBX 3 5 0 0
BITMAP
60
60
60
A0
E0
ENDCHAR
STARTCHAR ae
ENCODING -1
SWIDTH 1000 0
DWIDTH 4 0
BBX 3 4 0 0
BITMAP
60
E0
E0
C0
ENDCHAR
STARTCHAR ccedilla
ENCODING -1
SWIDTH 1000 0
DWIDTH 4 0
BBX 3 5 0 -1
BITMAP
60
80
60
20
40
ENDCHAR
STARTCHAR egrave
ENCODING -1
SWIDTH 1000 0
DWIDTH 4 0
BBX 3 5 0 0
BITMAP
40
20
60
E0
60
ENDCHAR
STARTCHAR eacute
ENCODING -1
SWIDTH 1000 0
DWIDTH 4 0
BBX 3 5 0 0
BITMAP
40
80
60
E0
60
ENDCHAR
STARTCHAR ecircumflex
ENCODING -1
SWIDTH 1000 0
DWIDTH 4 0
BBX 3 5 0 0
BITMAP
E0
00
60
E0
60
ENDCHAR
STARTCHAR edieresis
ENCODING -1
SWIDTH 1000 0
DWIDTH 4 0
BBX 3 5 0 0
BITMAP
A0
00
60
E0
60
ENDCHAR
STARTCHAR igrave
ENCODING -1
SWIDTH 1000 0
DWIDTH 4 0
BBX 2 5 1 0
BITMAP
80
40
80
80
80
ENDCHAR
STARTCHAR iacute
ENCODING -1
SWIDTH 1000 0
DWIDTH 4 0
BBX 2 5 0 0
BITMAP
40
80
40
40
40
ENDCHAR
STARTCHAR icircumflex
ENCODING -1
SWIDTH 1000 0
DWIDTH 4 0
BBX 3 5 0 0
BITMAP
E0
00
40
40
40
ENDCHAR
STARTCHAR idieresis
ENCODING -1
SWIDTH 1000 0
DWIDTH 4 0
BBX 3 5 0 0
BITMAP
A0
00
40
40
40
ENDCHAR
STARTCHAR eth
ENCODING -1
SWIDTH 1000 0
DWIDTH 4 0
BBX 3 5 0 0
BITMAP
60
C0
60
A0
60
ENDCHAR
STARTCHAR ntilde
ENCODING -1
SWIDTH 1000 0
DWIDTH 4 0
BBX 3 5 0 0
BITMAP
C0
60
C0
A0
A0
ENDCHAR
STARTCHAR ograve
ENCODING -1
SWIDTH 1000 0
DWIDTH 4 0
BBX 3 5 0 0
BITMAP
40
20
40
A0
40
ENDCHAR
STARTCHAR oacute
ENCODING -1
SWIDTH 1000 0
DWIDTH 4 0
BBX 3 5 0 0
BITMAP
40
80
40
A0
40
ENDCHAR
STARTCHAR ocircumflex
ENCODING -1
SWIDTH 1000 0
DWIDTH 4 0
BBX 3 5 0 0
BITMAP
E0
00
40
A0
40
ENDCHAR
STARTCHAR otilde
ENCODING -1
SWIDTH 1000 0
DWIDTH 4 0
BBX 3 5 0 0
BITMAP
C0
60
40
A0
40
ENDCHAR
STARTCHAR odieresis
ENCODING -1
SWIDTH 1000 0
DWIDTH 4 0
BBX 3 5 0 0
BITMAP
A0
00
40
A0
40
ENDCHAR
STARTCHAR divide
ENCODING -1
SWIDTH 1000 0
DWIDTH 4 0
BBX 3 5 0 0
BITMAP
40
00
E0
00
40
ENDCHAR
STARTCHAR oslash
ENCODING -1
SWIDTH 1000 0
DWIDTH 4 0
BBX 3 4 0 0
BITMAP
60
E0
A0
C0
ENDCHAR
STARTCHAR ugrave
ENCODING -1
SWIDTH 1000 0
DWIDTH 4 0
BBX 3 5 0 0
BITMAP
80
40
A0
A0
60
ENDCHAR
STARTCHAR uacute
ENCODING -1
SWIDTH 1000 0
DWIDTH 4 0
BBX 3 5 0 0
BITMAP
20
40
A0
A0
60
ENDCHAR
STARTCHAR ucircumflex
ENCODING -1
SWIDTH 1000 0
DWIDTH 4 0
BBX 3 5 0 0
BITMAP
E0
00
A0
A0
60
ENDCHAR
STARTCHAR udieresis
ENCODING -1
SWIDTH 1000 0
DWIDTH 4 0
BBX 3 5 0 0
BITMAP
A0
00
A0
A0
60
ENDCHAR
STARTCHAR yacute
ENCODING -1
SWIDTH 1000 0
DWIDTH 4 0
BBX 3 6 0 -1
BITMAP
20
40
A0
60
20
40
ENDCHAR
STARTCHAR thorn
ENCODING -1
SWIDTH 1000 0
DWIDTH 4 0
BBX 3 5 0 -1
BITMAP
80
C0
A0
C0
80
ENDCHAR
STARTCHAR ydieresis
ENCODING -1
SWIDTH 1000 0
DWIDTH 4 0
BBX 3 6 0 -1
BITMAP
A0
00
A0
60
20
40
ENDCHAR
STARTCHAR gcircumflex
ENCODING -1
SWIDTH 1000 0
DWIDTH 6 0
BBX 1 1 0 0
BITMAP
00
ENDCHAR
STARTCHAR OE
ENCODING -1
SWIDTH 666 0
DWIDTH 4 0
BBX 3 5 0 0
BITMAP
60
C0
E0
C0
60
ENDCHAR
STARTCHAR oe
ENCODING -1
SWIDTH 666 0
DWIDTH 4 0
BBX 3 4 0 0
BITMAP
60
E0
C0
E0
ENDCHAR
STARTCHAR Scaron
ENCODING -1
SWIDTH 666 0
DWIDTH 4 0
BBX 3 5 0 0
BITMAP
A0
60
C0
60
C0
ENDCHAR
STARTCHAR scaron
ENCODING -1
SWIDTH 666 0
DWIDTH 4 0
BBX 3 5 0 0
BITMAP
A0
60
C0
60
C0
ENDCHAR
STARTCHAR Ydieresis
ENCODING -1
SWIDTH 666 0
DWIDTH 4 0
BBX 3 5 0 0
BITMAP
A0
00
A0
40
40
ENDCHAR
STARTCHAR Zcaron
ENCODING -1
SWIDTH 666 0
DWIDTH 4 0
BBX 3 5 0 0
BITMAP
A0
E0
60
C0
E0
ENDCHAR
STARTCHAR zcaron
ENCODING -1
SWIDTH 666 0
DWIDTH 4 0
BBX 3 5 0 0
BITMAP
A0
E0
60
C0
E0
ENDCHAR
STARTCHAR uni0EA4
ENCODING -1
SWIDTH 1000 0
DWIDTH 6 0
BBX 1 1 0 0
BITMAP
00
ENDCHAR
STARTCHAR uni13A0
ENCODING -1
SWIDTH 1000 0
DWIDTH 6 0
BBX 1 1 0 0
BITMAP
00
ENDCHAR
STARTCHAR bullet
ENCODING -1
SWIDTH 666 0
DWIDTH 4 0
BBX 1 1 1 2
BITMAP
80
ENDCHAR
STARTCHAR ellipsis
ENCODING -1
SWIDTH 666 0
DWIDTH 4 0
BBX 3 1 0 0
BITMAP
A0
ENDCHAR
STARTCHAR Euro
ENCODING -1
SWIDTH 666 0
DWIDTH 4 0
BBX 3 5 0 0
BITMAP
60
E0
E0
C0
60
ENDCHAR
STARTCHAR Umbrella
ENCODING -1
SWIDTH 1000 0
DWIDTH 6 0
BBX 5 5 7 1
BITMAP
70
88
F8
20
20
ENDCHAR
ENDFONT
